<?xml version="1.0" encoding="UTF-8" standalone="no"?>
<svg
   xmlns:dc="http://purl.org/dc/elements/1.1/"
   xmlns:cc="http://creativecommons.org/ns#"
   xmlns:rdf="http://www.w3.org/1999/02/22-rdf-syntax-ns#"
   xmlns:svg="http://www.w3.org/2000/svg"
   xmlns="http://www.w3.org/2000/svg"
   xmlns:sodipodi="http://sodipodi.sourceforge.net/DTD/sodipodi-0.dtd"
   xmlns:inkscape="http://www.inkscape.org/namespaces/inkscape"
   sodipodi:docname="nan.svg"
   inkscape:version="1.0 (4035a4fb49, 2020-05-01)"
   id="svg8"
   version="1.1"
   viewBox="0 0 210 210"
   height="210mm"
   width="210mm">
  <title
     id="title10">WFS</title>
  <defs
     id="defs2" />
  <sodipodi:namedview
     inkscape:window-maximized="1"
     inkscape:window-y="-8"
     inkscape:window-x="-8"
     inkscape:window-height="837"
     inkscape:window-width="1600"
     showgrid="true"
     inkscape:document-rotation="0"
     inkscape:current-layer="layer1"
     inkscape:document-units="mm"
     inkscape:cy="560"
     inkscape:cx="400"
     inkscape:zoom="0.35"
     inkscape:pageshadow="2"
     inkscape:pageopacity="0.0"
     borderopacity="1.0"
     bordercolor="#666666"
     pagecolor="#ffffff"
     id="base">
    <inkscape:grid
       id="grid12"
       type="xygrid" />
  </sodipodi:namedview>
  <metadata
     id="metadata5">
    <rdf:RDF>
      <cc:Work
         rdf:about="">
        <dc:format>image/svg+xml</dc:format>
        <dc:type
           rdf:resource="http://purl.org/dc/dcmitype/StillImage" />
        <dc:title>WFS</dc:title>
        <cc:license
           rdf:resource="http://creativecommons.org/licenses/by-sa/4.0/" />
        <dc:creator>
          <cc:Agent>
            <dc:title>Sharkbyte</dc:title>
          </cc:Agent>
        </dc:creator>
      </cc:Work>
      <cc:License
         rdf:about="http://creativecommons.org/licenses/by-sa/4.0/">
        <cc:permits
           rdf:resource="http://creativecommons.org/ns#Reproduction" />
        <cc:permits
           rdf:resource="http://creativecommons.org/ns#Distribution" />
        <cc:requires
           rdf:resource="http://creativecommons.org/ns#Notice" />
        <cc:requires
           rdf:resource="http://creativecommons.org/ns#Attribution" />
        <cc:permits
           rdf:resource="http://creativecommons.org/ns#DerivativeWorks" />
        <cc:requires
           rdf:resource="http://creativecommons.org/ns#ShareAlike" />
      </cc:License>
    </rdf:RDF>
  </metadata>
  <g
     id="layer1"
     inkscape:groupmode="layer"
     inkscape:label="Ebene 1">
    <path
       transform="scale(0.26458333)"
       d="M 40 40 L 40 760 L 760 760 L 760 40 L 40 40 z M 307.25 607.86523 C 308.88709 607.86523 310.35502 607.97307 311.6543 608.1875 C 312.97957 608.40193 314.1879 608.65281 315.2793 608.93945 L 315.2793 618.16602 L 314.89062 618.16602 C 314.08511 617.8442 313.03169 617.52299 311.73242 617.20117 C 310.4331 616.84335 309.29019 616.66406 308.30273 616.66406 C 305.15849 616.66406 302.87257 617.62926 301.44336 619.56055 C 300.04015 621.45603 299.33789 624.90699 299.33789 629.91406 L 299.33789 631.95312 L 312.55078 631.95312 L 312.55078 640.42969 L 299.57227 640.42969 L 299.57227 691.87695 L 292.24414 691.87695 L 292.24414 640.42969 L 287.29297 640.42969 L 287.29297 631.95312 L 292.24414 631.95312 L 292.24414 629.96875 C 292.24414 622.85157 293.53092 617.39654 296.10352 613.60547 C 298.67606 609.7787 302.39068 607.86523 307.25 607.86523 z M 450.76953 610.54883 C 454.84928 610.54883 458.59197 611.08525 461.99609 612.1582 C 465.40021 613.23114 468.41453 614.55333 471.03906 616.12695 L 471.03906 628.67969 L 470.49219 628.67969 C 468.28341 626.10462 465.37371 623.9778 461.76172 622.29688 C 458.17573 620.58014 454.49841 619.7207 450.73047 619.7207 C 446.59876 619.7207 443.27255 620.9012 440.75195 623.26172 C 438.25734 625.62216 437.00977 628.66333 437.00977 632.38281 C 437.00977 635.70895 437.63356 638.31928 438.88086 640.21484 C 440.12818 642.11033 442.32451 643.55915 445.46875 644.56055 C 447.13184 645.06093 449.49619 645.66915 452.5625 646.38477 C 455.62878 647.1001 458.22657 647.83292 460.35742 648.58398 C 464.671 650.15758 467.91876 652.53568 470.10156 655.71875 C 472.28434 658.90182 473.37695 663.35384 473.37695 669.07617 C 473.37695 672.18766 472.8447 675.26466 471.7793 678.30469 C 470.7399 681.34469 469.27002 683.91919 467.37305 686.0293 C 465.29421 688.31825 462.86446 690.10705 460.08398 691.39453 C 457.32949 692.68209 454.00327 693.32422 450.10547 693.32422 C 445.92176 693.32422 442.15485 692.78778 438.80273 691.71484 C 435.47657 690.64189 432.08498 689.05152 428.62891 686.94141 L 428.62891 673.63672 L 429.17578 673.63672 C 432.11215 676.99853 435.50374 679.59199 439.34961 681.41602 C 443.19543 683.24002 446.80738 684.15234 450.18555 684.15234 C 454.96688 684.15234 458.68147 682.91695 461.33203 680.44922 C 464.00852 677.98144 465.34766 674.69108 465.34766 670.57812 C 465.34766 667.03747 464.71077 664.42703 463.4375 662.74609 C 462.19016 661.06514 460.27958 659.75997 457.70703 658.83008 C 455.75813 658.11479 453.64026 657.52548 451.35352 657.06055 C 449.09275 656.59546 446.68917 656.0042 444.14258 655.28906 C 438.99743 653.78695 435.17821 651.22941 432.68359 647.61719 C 430.21498 643.96916 428.98047 639.23194 428.98047 633.40234 C 428.98047 626.71432 431.03297 621.24233 435.13867 616.98633 C 439.24442 612.6946 444.45505 610.54883 450.76953 610.54883 z M 209.92188 611.45898 L 218.18555 611.45898 L 218.18555 621.92188 L 209.92188 621.92188 L 209.92188 611.45898 z M 83.669922 611.99609 L 91.583984 611.99609 L 103.7832 678.41211 L 115.78906 611.99609 L 123.62305 611.99609 L 135.74609 679.05469 L 147.86719 611.99609 L 155.42969 611.99609 L 140.3457 691.87695 L 131.65234 691.87695 L 119.45312 625.56836 L 107.52539 691.87695 L 99.027344 691.87695 L 83.669922 611.99609 z M 232.45117 614.73242 L 239.7793 614.73242 L 239.7793 631.95312 L 254.90234 631.95312 L 254.90234 640.42969 L 239.7793 640.42969 L 239.7793 667.73633 C 239.7793 670.88362 239.83146 673.35045 239.93555 675.13867 C 240.03964 676.89111 240.40385 678.53633 241.02734 680.07422 C 241.59904 681.50485 242.37778 682.56075 243.36523 683.24023 C 244.37868 683.88389 245.91199 684.20508 247.96484 684.20508 C 249.16017 684.20508 250.40776 683.9729 251.70703 683.50781 C 253.0063 683.00743 253.94198 682.59568 254.51367 682.27344 L 254.90234 682.27344 L 254.90234 691.33984 C 253.52508 691.84023 252.01795 692.25198 250.38086 692.57422 C 248.76977 692.89603 247.32801 693.05664 246.05469 693.05664 C 241.61117 693.05664 238.23265 691.41142 235.91992 688.12109 C 233.6072 684.83069 232.45117 679.55509 232.45117 672.29492 L 232.45117 640.42969 L 227.5 640.42969 L 227.5 631.95312 L 232.45117 631.95312 L 232.45117 614.73242 z M 485.34375 614.73242 L 492.66992 614.73242 L 492.66992 631.95312 L 507.79492 631.95312 L 507.79492 640.42969 L 492.66992 640.42969 L 492.66992 667.73633 C 492.66992 670.88362 492.72211 673.35045 492.82617 675.13867 C 492.93023 676.89111 493.29445 678.53633 493.91797 680.07422 C 494.48966 681.50485 495.27035 682.56075 496.25781 683.24023 C 497.27126 683.88389 498.80263 684.20508 500.85547 684.20508 C 502.05081 684.20508 503.29838 683.9729 504.59766 683.50781 C 505.89693 683.00743 506.83261 682.59568 507.4043 682.27344 L 507.79492 682.27344 L 507.79492 691.33984 C 506.41766 691.84023 504.91053 692.25198 503.27344 692.57422 C 501.66233 692.89603 500.22054 693.05664 498.94727 693.05664 C 494.5037 693.05664 491.12522 691.41142 488.8125 688.12109 C 486.49978 684.83069 485.34375 679.55509 485.34375 672.29492 L 485.34375 640.42969 L 480.39258 640.42969 L 480.39258 631.95312 L 485.34375 631.95312 L 485.34375 614.73242 z M 336.95117 630.28906 C 343.05777 630.28906 347.93037 633.13369 351.56836 638.82031 C 355.20635 644.47108 357.02539 652.17768 357.02539 661.94141 C 357.02539 671.70521 355.20635 679.41173 351.56836 685.0625 C 347.93037 690.71335 343.05777 693.53906 336.95117 693.53906 C 330.79258 693.53906 325.89581 690.71335 322.25781 685.0625 C 318.64582 679.41173 316.83984 671.70521 316.83984 661.94141 C 316.83984 652.17768 318.64582 644.47108 322.25781 638.82031 C 325.89581 633.13369 330.79258 630.28906 336.95117 630.28906 z M 568.91211 630.28906 C 574.78489 630.28906 579.30632 632.65014 582.47656 637.37109 C 585.67281 642.09203 587.27148 648.79748 587.27148 657.48828 L 587.27148 662.96094 L 555.19141 662.96094 C 555.19141 666.64467 555.59482 669.8633 556.40039 672.61719 C 557.20591 675.3353 558.30968 677.5717 559.71289 679.32422 C 561.06415 681.04088 562.66282 682.32722 564.50781 683.18555 C 566.37878 684.04393 568.43126 684.47266 570.66602 684.47266 C 573.62838 684.47266 576.60348 683.66804 579.5918 682.05859 C 582.60615 680.41344 584.75017 678.80409 586.02344 677.23047 L 586.41406 677.23047 L 586.41406 688.22852 C 583.9454 689.65914 581.42411 690.85667 578.85156 691.82227 C 576.27896 692.78793 573.57657 693.27148 570.74414 693.27148 C 563.52015 693.27148 557.8819 690.58935 553.82812 685.22461 C 549.77439 679.82417 547.74805 672.17044 547.74805 662.26367 C 547.74805 652.46416 549.68281 644.68587 553.55469 638.92773 C 557.45251 633.16962 562.57165 630.28906 568.91211 630.28906 z M 667.83984 630.28906 C 670.80219 630.28906 673.30847 631.1485 675.36133 632.86523 C 677.44017 634.58195 678.98656 636.96005 680 640 C 682.96237 636.5666 685.66476 634.09977 688.10742 632.59766 C 690.55003 631.05977 693.16289 630.28906 695.94336 630.28906 C 700.72469 630.28906 704.24507 632.29316 706.50586 636.29883 C 708.7926 640.26872 709.93555 645.82951 709.93555 652.98242 L 709.93555 691.87695 L 702.60742 691.87695 L 702.60742 657.75781 C 702.60742 655.18277 702.51786 652.697 702.33594 650.30078 C 702.17997 647.90456 701.82887 645.99117 701.2832 644.56055 C 700.68556 643.02271 699.82832 641.85909 698.71094 641.07227 C 697.59353 640.28542 695.98175 639.89258 693.87695 639.89258 C 691.82406 639.89258 689.77161 640.60851 687.71875 642.03906 C 685.66591 643.43391 683.61341 645.22263 681.56055 647.4043 C 681.63841 648.22685 681.702 649.19204 681.75391 650.30078 C 681.80581 651.37371 681.83203 652.44657 681.83203 653.51953 L 681.83203 691.87695 L 674.50391 691.87695 L 674.50391 657.75781 C 674.50391 655.11121 674.41434 652.60653 674.23242 650.24609 C 674.07645 647.84985 673.7253 645.93639 673.17969 644.50586 C 672.58199 642.96794 671.7248 641.82331 670.60742 641.07227 C 669.49002 640.28542 667.87823 639.89258 665.77344 639.89258 C 663.77253 639.89258 661.75931 640.57257 659.73242 641.93164 C 657.73157 643.29068 655.72942 645.02463 653.72852 647.13477 L 653.72852 691.87695 L 646.40039 691.87695 L 646.40039 631.95312 L 653.72852 631.95312 L 653.72852 638.60547 C 656.01523 635.99465 658.29004 633.95657 660.55078 632.49023 C 662.83757 631.02383 665.2673 630.28906 667.83984 630.28906 z M 177.17969 630.50586 C 180.24599 630.50586 182.90919 630.8628 185.16992 631.57812 C 187.45665 632.25776 189.43262 633.43833 191.0957 635.11914 C 192.73279 636.76429 193.97842 638.89111 194.83594 641.50195 C 195.69345 644.1128 196.12305 647.35034 196.12305 651.21289 L 196.12305 691.87695 L 188.83398 691.87695 L 188.83398 685.49219 C 188.18435 686.10054 187.30099 686.96 186.18359 688.06836 C 185.0922 689.14132 184.02773 689.99887 182.98828 690.64258 C 181.767 691.4652 180.36249 692.1452 178.77734 692.68164 C 177.19225 693.25399 175.33397 693.53906 173.20312 693.53906 C 169.27932 693.53906 165.95309 691.75227 163.22461 688.17578 C 160.49613 684.59932 159.13281 680.03958 159.13281 674.49609 C 159.13281 669.95396 159.83507 666.28764 161.23828 663.49805 C 162.66749 660.6726 164.69382 658.4551 167.31836 656.8457 C 169.9689 655.23633 173.15125 654.14456 176.86719 653.57227 C 180.58313 652.99989 184.57235 652.57112 188.83398 652.28516 L 188.83398 650.73047 C 188.83398 648.44154 188.53519 646.54508 187.9375 645.04297 C 187.36586 643.54086 186.5348 642.36028 185.44336 641.50195 C 184.40396 640.67933 183.15638 640.12595 181.70117 639.83984 C 180.24601 639.55401 178.72577 639.41016 177.14062 639.41016 C 175.21772 639.41016 173.0737 639.76716 170.70898 640.48242 C 168.34432 641.16206 165.90146 642.16507 163.38086 643.48828 L 162.99219 643.48828 L 162.99219 633.24023 C 164.4214 632.70387 166.48697 632.11456 169.18945 631.4707 C 171.89199 630.82707 174.55514 630.50586 177.17969 630.50586 z M 613.26953 630.50586 C 616.33581 630.50586 618.99898 630.8628 621.25977 631.57812 C 623.54648 632.25776 625.52245 633.43833 627.18555 635.11914 C 628.82264 636.76429 630.07021 638.89111 630.92773 641.50195 C 631.78526 644.1128 632.21289 647.35034 632.21289 651.21289 L 632.21289 691.87695 L 624.92383 691.87695 L 624.92383 685.49219 C 624.2742 686.10054 623.39079 686.96 622.27344 688.06836 C 621.18206 689.14132 620.1176 689.99887 619.07812 690.64258 C 617.85682 691.4652 616.4523 692.1452 614.86719 692.68164 C 613.28205 693.25399 611.42572 693.53906 609.29492 693.53906 C 605.37107 693.53906 602.0449 691.75227 599.31641 688.17578 C 596.58791 684.59932 595.22266 680.03958 595.22266 674.49609 C 595.22266 669.95396 595.92492 666.28764 597.32812 663.49805 C 598.75734 660.6726 600.78365 658.4551 603.4082 656.8457 C 606.05874 655.23633 609.24305 654.14456 612.95898 653.57227 C 616.67494 652.99989 620.66221 652.57112 624.92383 652.28516 L 624.92383 650.73047 C 624.92383 648.44154 624.62499 646.54508 624.02734 645.04297 C 623.45565 643.54086 622.6246 642.36028 621.5332 641.50195 C 620.49381 640.67933 619.24621 640.12595 617.79102 639.83984 C 616.3358 639.55401 614.81555 639.41016 613.23047 639.41016 C 611.3075 639.41016 609.1635 639.76716 606.79883 640.48242 C 604.43413 641.16206 601.99132 642.16507 599.4707 643.48828 L 599.08203 643.48828 L 599.08203 633.24023 C 600.51125 632.70387 602.57681 632.11456 605.2793 631.4707 C 607.98179 630.82707 610.64498 630.50586 613.26953 630.50586 z M 210.38867 631.95312 L 217.7168 631.95312 L 217.7168 691.87695 L 210.38867 691.87695 L 210.38867 631.95312 z M 368.4082 631.95312 L 375.73633 631.95312 L 375.73633 640.80469 C 378.6467 637.58587 381.20528 635.31548 383.41406 633.99219 C 385.64885 632.63312 387.92361 631.95312 390.23633 631.95312 C 391.5096 631.95312 392.43026 632.00594 393.00195 632.11328 C 393.57364 632.18459 394.43284 632.3452 395.57617 632.5957 L 395.57617 642.95117 L 395.18555 642.95117 C 394.09409 642.59338 393.02963 642.34181 391.99023 642.19922 C 390.97679 642.02057 389.76845 641.93164 388.36523 641.93164 C 386.1045 641.93164 383.92125 642.62862 381.81641 644.02344 C 379.71156 645.38251 377.68524 647.15432 375.73633 649.33594 L 375.73633 691.87695 L 368.4082 691.87695 L 368.4082 631.95312 z M 516.68164 631.95312 L 524.00977 631.95312 L 524.00977 640.80469 C 526.92015 637.58587 529.47872 635.31548 531.6875 633.99219 C 533.92228 632.63312 536.19705 631.95312 538.50977 631.95312 C 539.78304 631.95312 540.70565 632.00594 541.27734 632.11328 C 541.84904 632.18459 542.70628 632.3452 543.84961 632.5957 L 543.84961 642.95117 L 543.45898 642.95117 C 542.36753 642.59338 541.30307 642.34181 540.26367 642.19922 C 539.2502 642.02057 538.04188 641.93164 536.63867 641.93164 C 534.37796 641.93164 532.19469 642.62862 530.08984 644.02344 C 527.985 645.38251 525.95869 647.15432 524.00977 649.33594 L 524.00977 691.87695 L 516.68164 691.87695 L 516.68164 631.95312 z M 568.52344 638.60547 C 564.59961 638.60547 561.46763 640.19584 559.12891 643.37891 C 556.81619 646.5619 555.50322 650.51537 555.19141 655.23633 L 580.13867 655.23633 C 580.11348 649.94315 579.13855 645.84813 577.21484 642.95117 C 575.31787 640.05429 572.42124 638.60547 568.52344 638.60547 z M 336.95117 638.98047 C 332.97536 638.98047 329.88456 640.8769 327.67578 644.66797 C 325.493 648.42326 324.40039 654.18052 324.40039 661.94141 C 324.40039 669.45203 325.50606 675.15636 327.71484 679.05469 C 329.92363 682.91724 333.00136 684.84961 336.95117 684.84961 C 340.84899 684.84961 343.90254 682.93621 346.11133 679.10938 C 348.34611 675.24682 349.46484 669.52352 349.46484 661.94141 C 349.46484 654.18052 348.35917 648.42326 346.15039 644.66797 C 343.94161 640.8769 340.87499 638.98047 336.95117 638.98047 z M 188.83398 660.43945 C 186.5992 660.6181 183.96217 660.8864 180.92188 661.24414 C 177.90757 661.60194 175.51703 662.11947 173.75 662.79883 C 171.64516 663.62138 169.94185 664.90959 168.64258 666.66211 C 167.34331 668.37877 166.69531 670.75688 166.69531 673.79688 C 166.69531 677.23026 167.44793 679.82368 168.95508 681.57617 C 170.46223 683.29283 172.76122 684.15039 175.85352 684.15039 C 178.42606 684.15039 180.77931 683.47232 182.91016 682.11328 C 185.04095 680.71843 187.01496 679.05434 188.83398 677.12305 L 188.83398 660.43945 z M 624.92383 660.43945 C 622.68909 660.6181 620.05202 660.8864 617.01172 661.24414 C 613.99737 661.60194 611.60687 662.11947 609.83984 662.79883 C 607.735 663.62138 606.03364 664.90959 604.73438 666.66211 C 603.4351 668.37877 602.78516 670.75688 602.78516 673.79688 C 602.78516 677.23026 603.53777 679.82368 605.04492 681.57617 C 606.55215 683.29283 608.85308 684.15039 611.94531 684.15039 C 614.51791 684.15039 616.8692 683.47232 619 682.11328 C 621.13085 680.71843 623.10487 679.05434 624.92383 677.12305 L 624.92383 660.43945 z "
       style="fill:#00ffff;stroke-width:0.999999"
       id="rect14" />
    <path
       d="m 105.83333,21.166667 c -21.166666,0 0,95.250003 0,95.250003 0,0 21.16667,-95.250003 0,-95.250003 z M 105.81318,127 A 10.583333,10.583333 0 0 0 95.25,137.58333 10.583333,10.583333 0 0 0 105.83333,148.16667 10.583333,10.583333 0 0 0 116.41667,137.58333 10.583333,10.583333 0 0 0 105.83333,127 a 10.583333,10.583333 0 0 0 -0.0202,0 z"
       style="fill:#ff0000;stroke:#000000;stroke-width:0.264583px;stroke-linecap:butt;stroke-linejoin:miter;stroke-opacity:1"
       id="path67" />
  </g>
</svg>
